export const futakotome = {
  "delay": 0.2,
  "youtubeId": "NQJz2HUk-us",
  "titie": "二言目",
  "cover": "http://tn.smilevideo.jp/smile?i=21435061.L",
  "midiOffset": 60,
  "tracks": [
    {
      "startTime": 7.846145999999999,
      "duration": 84.8768382000004,
      "length": 182,
      "notes": [
        {
          "name": "B4",
          "midi": 71,
          "time": 7.846145999999999,
          "velocity": 0.6299212598425197,
          "duration": 0.4153842000000001
        },
        {
          "name": "E5",
          "midi": 76,
          "time": 8.307684,
          "velocity": 0.6299212598425197,
          "duration": 0.20769209999999916
        },
        {
          "name": "D#5",
          "midi": 75,
          "time": 8.538452999999999,
          "velocity": 0.6299212598425197,
          "duration": 0.20769209999999916
        },
        {
          "name": "C#5",
          "midi": 73,
          "time": 8.769221999999997,
          "velocity": 0.6299212598425197,
          "duration": 0.20769209999999916
        },
        {
          "name": "B4",
          "midi": 71,
          "time": 8.999990999999996,
          "velocity": 0.6299212598425197,
          "duration": 0.6461532000000005
        },
        {
          "name": "B4",
          "midi": 71,
          "time": 9.923066999999996,
          "velocity": 0.6299212598425197,
          "duration": 0.20769209999999916
        },
        {
          "name": "E5",
          "midi": 76,
          "time": 10.153835999999995,
          "velocity": 0.6299212598425197,
          "duration": 0.20769209999999916
        },
        {
          "name": "F#5",
          "midi": 78,
          "time": 10.384604999999993,
          "velocity": 0.6299212598425197,
          "duration": 0.20769209999999916
        },
        {
          "name": "G#5",
          "midi": 80,
          "time": 10.615373999999992,
          "velocity": 0.6299212598425197,
          "duration": 0.20769209999999916
        },
        {
          "name": "A5",
          "midi": 81,
          "time": 10.84614299999999,
          "velocity": 0.6299212598425197,
          "duration": 0.20769209999999916
        },
        {
          "name": "G#5",
          "midi": 80,
          "time": 11.07691199999999,
          "velocity": 0.6299212598425197,
          "duration": 0.20769209999999916
        },
        {
          "name": "B4",
          "midi": 71,
          "time": 11.307680999999988,
          "velocity": 0.6299212598425197,
          "duration": 1.6153829999999996
        },
        {
          "name": "B4",
          "midi": 71,
          "time": 15.230753999999987,
          "velocity": 0.6299212598425197,
          "duration": 0.4153842000000001
        },
        {
          "name": "E5",
          "midi": 76,
          "time": 15.692291999999988,
          "velocity": 0.6299212598425197,
          "duration": 0.20769209999999916
        },
        {
          "name": "D#5",
          "midi": 75,
          "time": 15.923060999999986,
          "velocity": 0.6299212598425197,
          "duration": 0.20769209999999916
        },
        {
          "name": "C#5",
          "midi": 73,
          "time": 16.153829999999985,
          "velocity": 0.6299212598425197,
          "duration": 0.20769209999999916
        },
        {
          "name": "B4",
          "midi": 71,
          "time": 16.384598999999984,
          "velocity": 0.6299212598425197,
          "duration": 0.6461532000000005
        },
        {
          "name": "B4",
          "midi": 71,
          "time": 17.307674999999985,
          "velocity": 0.6299212598425197,
          "duration": 0.20769209999999916
        },
        {
          "name": "E5",
          "midi": 76,
          "time": 17.538443999999984,
          "velocity": 0.6299212598425197,
          "duration": 0.20769209999999916
        },
        {
          "name": "F#5",
          "midi": 78,
          "time": 17.769212999999983,
          "velocity": 0.6299212598425197,
          "duration": 0.20769209999999916
        },
        {
          "name": "G#5",
          "midi": 80,
          "time": 17.99998199999998,
          "velocity": 0.6299212598425197,
          "duration": 0.20769209999999916
        },
        {
          "name": "A5",
          "midi": 81,
          "time": 18.23075099999998,
          "velocity": 0.6299212598425197,
          "duration": 0.20769209999999916
        },
        {
          "name": "G#5",
          "midi": 80,
          "time": 18.46151999999998,
          "velocity": 0.6299212598425197,
          "duration": 0.20769209999999916
        },
        {
          "name": "E5",
          "midi": 76,
          "time": 18.692288999999978,
          "velocity": 0.6299212598425197,
          "duration": 1.4769216000000007
        },
        {
          "name": "B4",
          "midi": 71,
          "time": 22.615361999999976,
          "velocity": 0.6299212598425197,
          "duration": 0.4153841999999983
        },
        {
          "name": "E5",
          "midi": 76,
          "time": 23.076899999999974,
          "velocity": 0.6299212598425197,
          "duration": 0.20769209999999916
        },
        {
          "name": "D#5",
          "midi": 75,
          "time": 23.307668999999972,
          "velocity": 0.6299212598425197,
          "duration": 0.20769209999999916
        },
        {
          "name": "C#5",
          "midi": 73,
          "time": 23.53843799999997,
          "velocity": 0.6299212598425197,
          "duration": 0.20769209999999916
        },
        {
          "name": "B4",
          "midi": 71,
          "time": 23.76920699999997,
          "velocity": 0.6299212598425197,
          "duration": 0.6461532000000005
        },
        {
          "name": "B4",
          "midi": 71,
          "time": 24.69228299999997,
          "velocity": 0.6299212598425197,
          "duration": 0.20769209999999916
        },
        {
          "name": "E5",
          "midi": 76,
          "time": 24.92305199999997,
          "velocity": 0.6299212598425197,
          "duration": 0.20769209999999916
        },
        {
          "name": "F#5",
          "midi": 78,
          "time": 25.15382099999997,
          "velocity": 0.6299212598425197,
          "duration": 0.20769209999999916
        },
        {
          "name": "G#5",
          "midi": 80,
          "time": 25.384589999999967,
          "velocity": 0.6299212598425197,
          "duration": 0.20769209999999916
        },
        {
          "name": "A5",
          "midi": 81,
          "time": 25.615358999999966,
          "velocity": 0.6299212598425197,
          "duration": 0.20769209999999916
        },
        {
          "name": "G#5",
          "midi": 80,
          "time": 25.846127999999965,
          "velocity": 0.6299212598425197,
          "duration": 0.20769209999999916
        },
        {
          "name": "B4",
          "midi": 71,
          "time": 26.076896999999963,
          "velocity": 0.6299212598425197,
          "duration": 1.4769216000000007
        },
        {
          "name": "B4",
          "midi": 71,
          "time": 29.769200999999963,
          "velocity": 0.6299212598425197,
          "duration": 0.20769209999999916
        },
        {
          "name": "B4",
          "midi": 71,
          "time": 29.999969999999962,
          "velocity": 0.6299212598425197,
          "duration": 0.20769209999999916
        },
        {
          "name": "B4",
          "midi": 71,
          "time": 30.23073899999996,
          "velocity": 0.6299212598425197,
          "duration": 0.20769209999999916
        },
        {
          "name": "E5",
          "midi": 76,
          "time": 30.46150799999996,
          "velocity": 0.6299212598425197,
          "duration": 0.20769209999999916
        },
        {
          "name": "D#5",
          "midi": 75,
          "time": 30.692276999999958,
          "velocity": 0.6299212598425197,
          "duration": 0.20769209999999916
        },
        {
          "name": "C#5",
          "midi": 73,
          "time": 30.923045999999957,
          "velocity": 0.6299212598425197,
          "duration": 0.20769209999999916
        },
        {
          "name": "B4",
          "midi": 71,
          "time": 31.153814999999955,
          "velocity": 0.6299212598425197,
          "duration": 0.6461532000000005
        },
        {
          "name": "B4",
          "midi": 71,
          "time": 32.076890999999954,
          "velocity": 0.6299212598425197,
          "duration": 0.2076921000000027
        },
        {
          "name": "B5",
          "midi": 83,
          "time": 32.307659999999956,
          "velocity": 0.6299212598425197,
          "duration": 0.2076921000000027
        },
        {
          "name": "A5",
          "midi": 81,
          "time": 32.53842899999996,
          "velocity": 0.6299212598425197,
          "duration": 0.2076921000000027
        },
        {
          "name": "G#5",
          "midi": 80,
          "time": 32.76919799999996,
          "velocity": 0.6299212598425197,
          "duration": 0.2076921000000027
        },
        {
          "name": "A5",
          "midi": 81,
          "time": 32.99996699999996,
          "velocity": 0.6299212598425197,
          "duration": 0.2076921000000027
        },
        {
          "name": "G#5",
          "midi": 80,
          "time": 33.230735999999965,
          "velocity": 0.6299212598425197,
          "duration": 0.2076921000000027
        },
        {
          "name": "E5",
          "midi": 76,
          "time": 33.46150499999997,
          "velocity": 0.6299212598425197,
          "duration": 1.4769215999999972
        },
        {
          "name": "E5",
          "midi": 76,
          "time": 36.69227099999996,
          "velocity": 0.6299212598425197,
          "duration": 0.2076921000000027
        },
        {
          "name": "D#5",
          "midi": 75,
          "time": 36.923039999999965,
          "velocity": 0.6299212598425197,
          "duration": 0.2076921000000027
        },
        {
          "name": "E5",
          "midi": 76,
          "time": 37.15380899999997,
          "velocity": 0.6299212598425197,
          "duration": 0.2076921000000027
        },
        {
          "name": "E5",
          "midi": 76,
          "time": 37.61534699999997,
          "velocity": 0.6299212598425197,
          "duration": 0.2076921000000027
        },
        {
          "name": "D#5",
          "midi": 75,
          "time": 37.846115999999974,
          "velocity": 0.6299212598425197,
          "duration": 0.2076921000000027
        },
        {
          "name": "E5",
          "midi": 76,
          "time": 38.076884999999976,
          "velocity": 0.6299212598425197,
          "duration": 0.2076921000000027
        },
        {
          "name": "E5",
          "midi": 76,
          "time": 38.53842299999998,
          "velocity": 0.6299212598425197,
          "duration": 0.2076921000000027
        },
        {
          "name": "D#5",
          "midi": 75,
          "time": 38.76919199999998,
          "velocity": 0.6299212598425197,
          "duration": 0.2076921000000027
        },
        {
          "name": "E5",
          "midi": 76,
          "time": 38.999960999999985,
          "velocity": 0.6299212598425197,
          "duration": 0.2076921000000027
        },
        {
          "name": "E5",
          "midi": 76,
          "time": 39.46149899999999,
          "velocity": 0.6299212598425197,
          "duration": 0.2076921000000027
        },
        {
          "name": "F#5",
          "midi": 78,
          "time": 39.69226799999999,
          "velocity": 0.6299212598425197,
          "duration": 0.2076921000000027
        },
        {
          "name": "E5",
          "midi": 76,
          "time": 39.923036999999994,
          "velocity": 0.6299212598425197,
          "duration": 0.2076921000000027
        },
        {
          "name": "E5",
          "midi": 76,
          "time": 40.384575,
          "velocity": 0.6299212598425197,
          "duration": 0.2076921000000027
        },
        {
          "name": "D#5",
          "midi": 75,
          "time": 40.615344,
          "velocity": 0.6299212598425197,
          "duration": 0.2076921000000027
        },
        {
          "name": "E5",
          "midi": 76,
          "time": 40.846113,
          "velocity": 0.6299212598425197,
          "duration": 0.2076921000000027
        },
        {
          "name": "E5",
          "midi": 76,
          "time": 41.30765100000001,
          "velocity": 0.6299212598425197,
          "duration": 0.2076921000000027
        },
        {
          "name": "D#5",
          "midi": 75,
          "time": 41.53842000000001,
          "velocity": 0.6299212598425197,
          "duration": 0.2076921000000027
        },
        {
          "name": "E5",
          "midi": 76,
          "time": 41.76918900000001,
          "velocity": 0.6299212598425197,
          "duration": 0.2076921000000027
        },
        {
          "name": "E5",
          "midi": 76,
          "time": 42.230727000000016,
          "velocity": 0.6299212598425197,
          "duration": 0.2076921000000027
        },
        {
          "name": "D#5",
          "midi": 75,
          "time": 42.46149600000002,
          "velocity": 0.6299212598425197,
          "duration": 0.2076921000000027
        },
        {
          "name": "E5",
          "midi": 76,
          "time": 42.69226500000002,
          "velocity": 0.6299212598425197,
          "duration": 0.2076921000000027
        },
        {
          "name": "E5",
          "midi": 76,
          "time": 43.153803000000025,
          "velocity": 0.6299212598425197,
          "duration": 0.2076921000000027
        },
        {
          "name": "F#5",
          "midi": 78,
          "time": 43.38457200000003,
          "velocity": 0.6299212598425197,
          "duration": 0.2076921000000027
        },
        {
          "name": "G#5",
          "midi": 80,
          "time": 43.61534100000003,
          "velocity": 0.6299212598425197,
          "duration": 0.2076921000000027
        },
        {
          "name": "E5",
          "midi": 76,
          "time": 44.076879000000034,
          "velocity": 0.6299212598425197,
          "duration": 0.2076921000000027
        },
        {
          "name": "D#5",
          "midi": 75,
          "time": 44.307648000000036,
          "velocity": 0.6299212598425197,
          "duration": 0.2076921000000027
        },
        {
          "name": "E5",
          "midi": 76,
          "time": 44.53841700000004,
          "velocity": 0.6299212598425197,
          "duration": 0.2076921000000027
        },
        {
          "name": "E5",
          "midi": 76,
          "time": 44.99995500000004,
          "velocity": 0.6299212598425197,
          "duration": 0.2076921000000027
        },
        {
          "name": "D#5",
          "midi": 75,
          "time": 45.230724000000045,
          "velocity": 0.6299212598425197,
          "duration": 0.2076921000000027
        },
        {
          "name": "E5",
          "midi": 76,
          "time": 45.46149300000005,
          "velocity": 0.6299212598425197,
          "duration": 0.2076921000000027
        },
        {
          "name": "E5",
          "midi": 76,
          "time": 45.92303100000005,
          "velocity": 0.6299212598425197,
          "duration": 0.2076921000000027
        },
        {
          "name": "D#5",
          "midi": 75,
          "time": 46.153800000000054,
          "velocity": 0.6299212598425197,
          "duration": 0.2076921000000027
        },
        {
          "name": "E5",
          "midi": 76,
          "time": 46.384569000000056,
          "velocity": 0.6299212598425197,
          "duration": 0.2076921000000027
        },
        {
          "name": "E5",
          "midi": 76,
          "time": 46.84610700000006,
          "velocity": 0.6299212598425197,
          "duration": 0.2076921000000027
        },
        {
          "name": "F#5",
          "midi": 78,
          "time": 47.07687600000006,
          "velocity": 0.6299212598425197,
          "duration": 0.2076921000000027
        },
        {
          "name": "E5",
          "midi": 76,
          "time": 47.307645000000065,
          "velocity": 0.6299212598425197,
          "duration": 0.2076921000000027
        },
        {
          "name": "E5",
          "midi": 76,
          "time": 47.76918300000007,
          "velocity": 0.6299212598425197,
          "duration": 0.2076921000000027
        },
        {
          "name": "D#5",
          "midi": 75,
          "time": 47.99995200000007,
          "velocity": 0.6299212598425197,
          "duration": 0.2076921000000027
        },
        {
          "name": "E5",
          "midi": 76,
          "time": 48.230721000000074,
          "velocity": 0.6299212598425197,
          "duration": 0.2076921000000027
        },
        {
          "name": "E5",
          "midi": 76,
          "time": 48.69225900000008,
          "velocity": 0.6299212598425197,
          "duration": 0.2076921000000027
        },
        {
          "name": "D#5",
          "midi": 75,
          "time": 48.92302800000008,
          "velocity": 0.6299212598425197,
          "duration": 0.2076921000000027
        },
        {
          "name": "E5",
          "midi": 76,
          "time": 49.15379700000008,
          "velocity": 0.6299212598425197,
          "duration": 0.2076921000000027
        },
        {
          "name": "E5",
          "midi": 76,
          "time": 49.61533500000009,
          "velocity": 0.6299212598425197,
          "duration": 0.2076921000000027
        },
        {
          "name": "D#5",
          "midi": 75,
          "time": 49.84610400000009,
          "velocity": 0.6299212598425197,
          "duration": 0.2076921000000027
        },
        {
          "name": "E5",
          "midi": 76,
          "time": 50.07687300000009,
          "velocity": 0.6299212598425197,
          "duration": 0.2076921000000027
        },
        {
          "name": "E5",
          "midi": 76,
          "time": 50.538411000000096,
          "velocity": 0.6299212598425197,
          "duration": 0.2076921000000027
        },
        {
          "name": "D#5",
          "midi": 75,
          "time": 50.7691800000001,
          "velocity": 0.6299212598425197,
          "duration": 0.2076921000000027
        },
        {
          "name": "E5",
          "midi": 76,
          "time": 50.9999490000001,
          "velocity": 0.6299212598425197,
          "duration": 0.2076921000000027
        },
        {
          "name": "E5",
          "midi": 76,
          "time": 51.461487000000105,
          "velocity": 0.6299212598425197,
          "duration": 0.2076921000000027
        },
        {
          "name": "D#5",
          "midi": 75,
          "time": 51.69225600000011,
          "velocity": 0.6299212598425197,
          "duration": 0.2076921000000027
        },
        {
          "name": "E5",
          "midi": 76,
          "time": 51.92302500000011,
          "velocity": 0.6299212598425197,
          "duration": 0.2076921000000027
        },
        {
          "name": "D#5",
          "midi": 75,
          "time": 52.15379400000011,
          "velocity": 0.6299212598425197,
          "duration": 0.2076921000000027
        },
        {
          "name": "E5",
          "midi": 76,
          "time": 52.384563000000114,
          "velocity": 0.6299212598425197,
          "duration": 0.2076921000000027
        },
        {
          "name": "D#5",
          "midi": 75,
          "time": 52.615332000000116,
          "velocity": 0.6299212598425197,
          "duration": 0.2076921000000027
        },
        {
          "name": "E5",
          "midi": 76,
          "time": 52.84610100000012,
          "velocity": 0.6299212598425197,
          "duration": 0.2076921000000027
        },
        {
          "name": "D#5",
          "midi": 75,
          "time": 53.07687000000012,
          "velocity": 0.6299212598425197,
          "duration": 0.2076921000000027
        },
        {
          "name": "E5",
          "midi": 76,
          "time": 53.30763900000012,
          "velocity": 0.6299212598425197,
          "duration": 0.2076921000000027
        },
        {
          "name": "D#5",
          "midi": 75,
          "time": 53.538408000000125,
          "velocity": 0.6299212598425197,
          "duration": 0.2076921000000027
        },
        {
          "name": "E5",
          "midi": 76,
          "time": 53.76917700000013,
          "velocity": 0.6299212598425197,
          "duration": 0.2076921000000027
        },
        {
          "name": "D#5",
          "midi": 75,
          "time": 53.99994600000013,
          "velocity": 0.6299212598425197,
          "duration": 0.2076921000000027
        },
        {
          "name": "E5",
          "midi": 76,
          "time": 54.23071500000013,
          "velocity": 0.6299212598425197,
          "duration": 0.2076921000000027
        },
        {
          "name": "D#5",
          "midi": 75,
          "time": 54.461484000000134,
          "velocity": 0.6299212598425197,
          "duration": 0.2076921000000027
        },
        {
          "name": "E5",
          "midi": 76,
          "time": 54.692253000000136,
          "velocity": 0.6299212598425197,
          "duration": 0.2076921000000027
        },
        {
          "name": "D#5",
          "midi": 75,
          "time": 54.92302200000014,
          "velocity": 0.6299212598425197,
          "duration": 0.2076921000000027
        },
        {
          "name": "E5",
          "midi": 76,
          "time": 55.15379100000014,
          "velocity": 0.6299212598425197,
          "duration": 0.2076921000000027
        },
        {
          "name": "B4",
          "midi": 71,
          "time": 55.38456000000014,
          "velocity": 0.6299212598425197,
          "duration": 0.4153841999999983
        },
        {
          "name": "E5",
          "midi": 76,
          "time": 55.84609800000014,
          "velocity": 0.6299212598425197,
          "duration": 0.2076921000000027
        },
        {
          "name": "E5",
          "midi": 76,
          "time": 56.07686700000014,
          "velocity": 0.6299212598425197,
          "duration": 0.4384610999999978
        },
        {
          "name": "E5",
          "midi": 76,
          "time": 56.53840500000014,
          "velocity": 0.6299212598425197,
          "duration": 0.4384610999999978
        },
        {
          "name": "E5",
          "midi": 76,
          "time": 56.99994300000014,
          "velocity": 0.6299212598425197,
          "duration": 0.4384610999999978
        },
        {
          "name": "F#5",
          "midi": 78,
          "time": 57.461481000000134,
          "velocity": 0.6299212598425197,
          "duration": 0.2076921000000027
        },
        {
          "name": "F#5",
          "midi": 78,
          "time": 57.692250000000136,
          "velocity": 0.6299212598425197,
          "duration": 0.2076921000000027
        },
        {
          "name": "F#5",
          "midi": 78,
          "time": 57.92301900000014,
          "velocity": 0.6299212598425197,
          "duration": 0.6461532000000005
        },
        {
          "name": "G#5",
          "midi": 80,
          "time": 58.84609500000014,
          "velocity": 0.6299212598425197,
          "duration": 0.10384605000000136
        },
        {
          "name": "A5",
          "midi": 81,
          "time": 58.961479500000145,
          "velocity": 0.6299212598425197,
          "duration": 0.10384605000000136
        },
        {
          "name": "B5",
          "midi": 83,
          "time": 59.07686400000015,
          "velocity": 0.6299212598425197,
          "duration": 0.2076921000000027
        },
        {
          "name": "E5",
          "midi": 76,
          "time": 59.30763300000015,
          "velocity": 0.6299212598425197,
          "duration": 0.2076921000000027
        },
        {
          "name": "E5",
          "midi": 76,
          "time": 59.538402000000154,
          "velocity": 0.6299212598425197,
          "duration": 0.2076921000000027
        },
        {
          "name": "B5",
          "midi": 83,
          "time": 59.769171000000156,
          "velocity": 0.6299212598425197,
          "duration": 0.2076921000000027
        },
        {
          "name": "E5",
          "midi": 76,
          "time": 59.99994000000016,
          "velocity": 0.6299212598425197,
          "duration": 0.2076921000000027
        },
        {
          "name": "E5",
          "midi": 76,
          "time": 60.23070900000016,
          "velocity": 0.6299212598425197,
          "duration": 0.2076921000000027
        },
        {
          "name": "B4",
          "midi": 71,
          "time": 60.692247000000165,
          "velocity": 0.6299212598425197,
          "duration": 0.4384610999999978
        },
        {
          "name": "E5",
          "midi": 76,
          "time": 61.15378500000016,
          "velocity": 0.6299212598425197,
          "duration": 0.2076921000000027
        },
        {
          "name": "G#5",
          "midi": 80,
          "time": 61.384554000000165,
          "velocity": 0.6299212598425197,
          "duration": 0.2076921000000027
        },
        {
          "name": "A5",
          "midi": 81,
          "time": 61.61532300000017,
          "velocity": 0.6299212598425197,
          "duration": 0.2076921000000027
        },
        {
          "name": "G#5",
          "midi": 80,
          "time": 61.84609200000017,
          "velocity": 0.6299212598425197,
          "duration": 0.4153841999999983
        },
        {
          "name": "F#5",
          "midi": 78,
          "time": 62.30763000000017,
          "velocity": 0.6299212598425197,
          "duration": 0.4153841999999983
        },
        {
          "name": "B4",
          "midi": 71,
          "time": 62.769168000000164,
          "velocity": 0.6299212598425197,
          "duration": 0.4153841999999983
        },
        {
          "name": "E5",
          "midi": 76,
          "time": 63.23070600000016,
          "velocity": 0.6299212598425197,
          "duration": 0.2076921000000027
        },
        {
          "name": "E5",
          "midi": 76,
          "time": 63.46147500000016,
          "velocity": 0.6299212598425197,
          "duration": 0.4384610999999978
        },
        {
          "name": "E5",
          "midi": 76,
          "time": 63.92301300000016,
          "velocity": 0.6299212598425197,
          "duration": 0.43846110000000493
        },
        {
          "name": "E5",
          "midi": 76,
          "time": 64.38455100000017,
          "velocity": 0.6299212598425197,
          "duration": 0.4384610999999978
        },
        {
          "name": "F#5",
          "midi": 78,
          "time": 64.84608900000018,
          "velocity": 0.6299212598425197,
          "duration": 0.2076921000000027
        },
        {
          "name": "F#5",
          "midi": 78,
          "time": 65.07685800000019,
          "velocity": 0.6299212598425197,
          "duration": 0.2076921000000027
        },
        {
          "name": "F#5",
          "midi": 78,
          "time": 65.3076270000002,
          "velocity": 0.6299212598425197,
          "duration": 0.6461532000000005
        },
        {
          "name": "G#5",
          "midi": 80,
          "time": 66.23070300000019,
          "velocity": 0.6299212598425197,
          "duration": 0.10384605000000136
        },
        {
          "name": "A5",
          "midi": 81,
          "time": 66.3460875000002,
          "velocity": 0.6299212598425197,
          "duration": 0.10384605000000136
        },
        {
          "name": "B5",
          "midi": 83,
          "time": 66.4614720000002,
          "velocity": 0.6299212598425197,
          "duration": 0.2076921000000027
        },
        {
          "name": "E5",
          "midi": 76,
          "time": 66.69224100000021,
          "velocity": 0.6299212598425197,
          "duration": 0.2076921000000027
        },
        {
          "name": "E5",
          "midi": 76,
          "time": 66.92301000000022,
          "velocity": 0.6299212598425197,
          "duration": 0.2076921000000027
        },
        {
          "name": "C#6",
          "midi": 85,
          "time": 67.15377900000023,
          "velocity": 0.6299212598425197,
          "duration": 0.2076921000000027
        },
        {
          "name": "F#5",
          "midi": 78,
          "time": 67.38454800000024,
          "velocity": 0.6299212598425197,
          "duration": 0.2076921000000027
        },
        {
          "name": "F#5",
          "midi": 78,
          "time": 67.61531700000025,
          "velocity": 0.6299212598425197,
          "duration": 0.2076921000000027
        },
        {
          "name": "E5",
          "midi": 76,
          "time": 68.07685500000025,
          "velocity": 0.6299212598425197,
          "duration": 0.4384610999999978
        },
        {
          "name": "F#5",
          "midi": 78,
          "time": 68.53839300000026,
          "velocity": 0.6299212598425197,
          "duration": 0.2076921000000027
        },
        {
          "name": "G#5",
          "midi": 80,
          "time": 68.76916200000026,
          "velocity": 0.6299212598425197,
          "duration": 0.2076921000000027
        },
        {
          "name": "A5",
          "midi": 81,
          "time": 68.99993100000027,
          "velocity": 0.6299212598425197,
          "duration": 0.2076921000000027
        },
        {
          "name": "B5",
          "midi": 83,
          "time": 69.23070000000028,
          "velocity": 0.6299212598425197,
          "duration": 0.4153842000000054
        },
        {
          "name": "F#5",
          "midi": 78,
          "time": 69.69223800000029,
          "velocity": 0.6299212598425197,
          "duration": 0.4153842000000054
        },
        {
          "name": "E5",
          "midi": 76,
          "time": 70.15377600000029,
          "velocity": 0.6299212598425197,
          "duration": 1.246152600000002
        },
        {
          "name": "E5",
          "midi": 76,
          "time": 71.7691590000003,
          "velocity": 0.6299212598425197,
          "duration": 0.2076921000000027
        },
        {
          "name": "G#5",
          "midi": 80,
          "time": 71.99992800000031,
          "velocity": 0.6299212598425197,
          "duration": 0.4153842000000054
        },
        {
          "name": "A5",
          "midi": 81,
          "time": 72.46146600000031,
          "velocity": 0.6299212598425197,
          "duration": 0.2076921000000027
        },
        {
          "name": "G#5",
          "midi": 80,
          "time": 72.69223500000032,
          "velocity": 0.6299212598425197,
          "duration": 0.4384610999999978
        },
        {
          "name": "F#5",
          "midi": 78,
          "time": 73.15377300000033,
          "velocity": 0.6299212598425197,
          "duration": 0.4384610999999978
        },
        {
          "name": "F#5",
          "midi": 78,
          "time": 73.61531100000033,
          "velocity": 0.6299212598425197,
          "duration": 0.4384610999999978
        },
        {
          "name": "E5",
          "midi": 76,
          "time": 74.07684900000034,
          "velocity": 0.6299212598425197,
          "duration": 0.6461532000000005
        },
        {
          "name": "D#5",
          "midi": 75,
          "time": 74.76915600000034,
          "velocity": 0.6299212598425197,
          "duration": 0.2076921000000027
        },
        {
          "name": "E5",
          "midi": 76,
          "time": 74.99992500000035,
          "velocity": 0.6299212598425197,
          "duration": 0.4384610999999978
        },
        {
          "name": "B5",
          "midi": 83,
          "time": 75.46146300000035,
          "velocity": 0.6299212598425197,
          "duration": 1.8923058000000026
        },
        {
          "name": "G#5",
          "midi": 80,
          "time": 77.99992200000035,
          "velocity": 0.6299212598425197,
          "duration": 0.2076921000000027
        },
        {
          "name": "G#5",
          "midi": 80,
          "time": 78.23069100000036,
          "velocity": 0.6299212598425197,
          "duration": 0.10384605000000136
        },
        {
          "name": "G#5",
          "midi": 80,
          "time": 78.34607550000037,
          "velocity": 0.6299212598425197,
          "duration": 0.32307659999999316
        },
        {
          "name": "A5",
          "midi": 81,
          "time": 78.69222900000037,
          "velocity": 0.6299212598425197,
          "duration": 0.2076921000000027
        },
        {
          "name": "B5",
          "midi": 83,
          "time": 78.92299800000038,
          "velocity": 0.6299212598425197,
          "duration": 0.2076921000000027
        },
        {
          "name": "B5",
          "midi": 83,
          "time": 79.15376700000039,
          "velocity": 0.6299212598425197,
          "duration": 0.4384610999999978
        },
        {
          "name": "F#5",
          "midi": 78,
          "time": 79.61530500000039,
          "velocity": 0.6299212598425197,
          "duration": 0.4384610999999978
        },
        {
          "name": "F#5",
          "midi": 78,
          "time": 80.30761200000039,
          "velocity": 0.6299212598425197,
          "duration": 0.4153842000000054
        },
        {
          "name": "G#5",
          "midi": 80,
          "time": 80.7691500000004,
          "velocity": 0.6299212598425197,
          "duration": 0.4153842000000054
        },
        {
          "name": "F#5",
          "midi": 78,
          "time": 81.2306880000004,
          "velocity": 0.6299212598425197,
          "duration": 0.4153842000000054
        },
        {
          "name": "E5",
          "midi": 76,
          "time": 81.6922260000004,
          "velocity": 0.6299212598425197,
          "duration": 0.2076921000000027
        },
        {
          "name": "E5",
          "midi": 76,
          "time": 81.92299500000041,
          "velocity": 0.6299212598425197,
          "duration": 2.9538431999999943
        }
      ],
      "controlChanges": {
        "10": [
          {
            "number": 10,
            "time": 0,
            "value": 0.5039370078740157
          }
        ]
      },
      "id": 1,
      "name": "Piano",
      "instrumentNumber": 0,
      "instrument": "acoustic grand piano",
      "instrumentFamily": "piano",
      "channelNumber": 0,
      "isPercussion": false
    }
  ]
};
