export const kiminosiranai = {
  "delay": 1.2,
  "youtubeId": "wfkgRfBUWLo",
  "titie": "君の知らない物語",
  "cover": "https://images-na.ssl-images-amazon.com/images/I/61qqNljoiPL._SX355_.jpg",
  "midiOffset": 54,
  "tracks": [
    {
      "startTime": 17.454528,
      "duration": 85.73552032499997,
      "length": 146,
      "notes": [
        {
          "name": "E4",
          "midi": 64,
          "time": 17.454528,
          "velocity": 0.6299212598425197,
          "duration": 0.1719695250000015
        },
        {
          "name": "E4",
          "midi": 64,
          "time": 17.636346,
          "velocity": 0.6299212598425197,
          "duration": 0.1719695250000015
        },
        {
          "name": "E4",
          "midi": 64,
          "time": 17.818164,
          "velocity": 0.6299212598425197,
          "duration": 0.1719695250000015
        },
        {
          "name": "E4",
          "midi": 64,
          "time": 17.999982,
          "velocity": 0.6299212598425197,
          "duration": 0.1719695250000015
        },
        {
          "name": "E4",
          "midi": 64,
          "time": 18.1818,
          "velocity": 0.6299212598425197,
          "duration": 0.1719695250000015
        },
        {
          "name": "E4",
          "midi": 64,
          "time": 18.363618,
          "velocity": 0.6299212598425197,
          "duration": 0.1719695250000015
        },
        {
          "name": "E4",
          "midi": 64,
          "time": 18.545436,
          "velocity": 0.6299212598425197,
          "duration": 0.1719695250000015
        },
        {
          "name": "E4",
          "midi": 64,
          "time": 18.727254,
          "velocity": 0.6299212598425197,
          "duration": 0.1719695250000015
        },
        {
          "name": "E4",
          "midi": 64,
          "time": 18.909072,
          "velocity": 0.6299212598425197,
          "duration": 0.1719695250000015
        },
        {
          "name": "E4",
          "midi": 64,
          "time": 19.090889999999998,
          "velocity": 0.6299212598425197,
          "duration": 0.1719695250000015
        },
        {
          "name": "D4",
          "midi": 62,
          "time": 19.272707999999998,
          "velocity": 0.6299212598425197,
          "duration": 0.1719695250000015
        },
        {
          "name": "C#4",
          "midi": 61,
          "time": 19.454525999999998,
          "velocity": 0.6299212598425197,
          "duration": 0.344696625000001
        },
        {
          "name": "B3",
          "midi": 59,
          "time": 19.818161999999997,
          "velocity": 0.6299212598425197,
          "duration": 0.344696625000001
        },
        {
          "name": "B3",
          "midi": 59,
          "time": 20.181797999999997,
          "velocity": 0.6299212598425197,
          "duration": 0.1719695250000015
        },
        {
          "name": "C#4",
          "midi": 61,
          "time": 20.363615999999997,
          "velocity": 0.6299212598425197,
          "duration": 0.1719695250000015
        },
        {
          "name": "C#4",
          "midi": 61,
          "time": 20.545433999999997,
          "velocity": 0.6299212598425197,
          "duration": 0.1719695250000015
        },
        {
          "name": "C#4",
          "midi": 61,
          "time": 20.727251999999996,
          "velocity": 0.6299212598425197,
          "duration": 0.1719695250000015
        },
        {
          "name": "C#4",
          "midi": 61,
          "time": 20.909069999999996,
          "velocity": 0.6299212598425197,
          "duration": 0.1719695250000015
        },
        {
          "name": "C#4",
          "midi": 61,
          "time": 21.090887999999996,
          "velocity": 0.6299212598425197,
          "duration": 0.1719695250000015
        },
        {
          "name": "C#4",
          "midi": 61,
          "time": 21.272705999999996,
          "velocity": 0.6299212598425197,
          "duration": 0.1719695250000015
        },
        {
          "name": "D4",
          "midi": 62,
          "time": 21.454523999999996,
          "velocity": 0.6299212598425197,
          "duration": 0.1719695250000015
        },
        {
          "name": "C#4",
          "midi": 61,
          "time": 21.636341999999996,
          "velocity": 0.6299212598425197,
          "duration": 0.1719695250000015
        },
        {
          "name": "C#4",
          "midi": 61,
          "time": 21.818159999999995,
          "velocity": 0.6299212598425197,
          "duration": 0.1719695250000015
        },
        {
          "name": "C#4",
          "midi": 61,
          "time": 21.999977999999995,
          "velocity": 0.6299212598425197,
          "duration": 0.1719695250000015
        },
        {
          "name": "D4",
          "midi": 62,
          "time": 22.181795999999995,
          "velocity": 0.6299212598425197,
          "duration": 0.1719695250000015
        },
        {
          "name": "C#4",
          "midi": 61,
          "time": 22.363613999999995,
          "velocity": 0.6299212598425197,
          "duration": 0.344696625000001
        },
        {
          "name": "B3",
          "midi": 59,
          "time": 22.727249999999994,
          "velocity": 0.6299212598425197,
          "duration": 0.5174237250000004
        },
        {
          "name": "A3",
          "midi": 57,
          "time": 23.272703999999994,
          "velocity": 0.6299212598425197,
          "duration": 0.6901508249999999
        },
        {
          "name": "A4",
          "midi": 69,
          "time": 23.999975999999993,
          "velocity": 0.6299212598425197,
          "duration": 0.6901508249999999
        },
        {
          "name": "G#4",
          "midi": 68,
          "time": 24.727247999999992,
          "velocity": 0.6299212598425197,
          "duration": 0.6901508249999999
        },
        {
          "name": "A4",
          "midi": 69,
          "time": 25.45451999999999,
          "velocity": 0.6299212598425197,
          "duration": 0.5174237250000004
        },
        {
          "name": "A4",
          "midi": 69,
          "time": 25.99997399999999,
          "velocity": 0.6299212598425197,
          "duration": 0.1719695250000015
        },
        {
          "name": "A4",
          "midi": 69,
          "time": 26.18179199999999,
          "velocity": 0.6299212598425197,
          "duration": 0.8628779249999994
        },
        {
          "name": "G#4",
          "midi": 68,
          "time": 27.09088199999999,
          "velocity": 0.6299212598425197,
          "duration": 0.1719695250000015
        },
        {
          "name": "F#4",
          "midi": 66,
          "time": 27.27269999999999,
          "velocity": 0.6299212598425197,
          "duration": 0.1719695250000015
        },
        {
          "name": "E4",
          "midi": 64,
          "time": 27.45451799999999,
          "velocity": 0.6299212598425197,
          "duration": 1.5537863250000008
        },
        {
          "name": "E4",
          "midi": 64,
          "time": 29.09087999999999,
          "velocity": 0.6299212598425197,
          "duration": 0.344696625000001
        },
        {
          "name": "E4",
          "midi": 64,
          "time": 29.45451599999999,
          "velocity": 0.6299212598425197,
          "duration": 0.1719695250000015
        },
        {
          "name": "E4",
          "midi": 64,
          "time": 29.63633399999999,
          "velocity": 0.6299212598425197,
          "duration": 0.1719695250000015
        },
        {
          "name": "E4",
          "midi": 64,
          "time": 29.81815199999999,
          "velocity": 0.6299212598425197,
          "duration": 0.1719695250000015
        },
        {
          "name": "E4",
          "midi": 64,
          "time": 29.99996999999999,
          "velocity": 0.6299212598425197,
          "duration": 0.1719695250000015
        },
        {
          "name": "E4",
          "midi": 64,
          "time": 30.18178799999999,
          "velocity": 0.6299212598425197,
          "duration": 0.1719695250000015
        },
        {
          "name": "E4",
          "midi": 64,
          "time": 30.36360599999999,
          "velocity": 0.6299212598425197,
          "duration": 0.1719695250000015
        },
        {
          "name": "E4",
          "midi": 64,
          "time": 30.54542399999999,
          "velocity": 0.6299212598425197,
          "duration": 0.1719695250000015
        },
        {
          "name": "E4",
          "midi": 64,
          "time": 30.72724199999999,
          "velocity": 0.6299212598425197,
          "duration": 0.1719695250000015
        },
        {
          "name": "D4",
          "midi": 62,
          "time": 30.90905999999999,
          "velocity": 0.6299212598425197,
          "duration": 0.1719695250000015
        },
        {
          "name": "C#4",
          "midi": 61,
          "time": 31.09087799999999,
          "velocity": 0.6299212598425197,
          "duration": 0.344696625000001
        },
        {
          "name": "B3",
          "midi": 59,
          "time": 31.45451399999999,
          "velocity": 0.6299212598425197,
          "duration": 0.344696625000001
        },
        {
          "name": "B3",
          "midi": 59,
          "time": 31.81814999999999,
          "velocity": 0.6299212598425197,
          "duration": 0.1719695250000015
        },
        {
          "name": "C#4",
          "midi": 61,
          "time": 31.99996799999999,
          "velocity": 0.6299212598425197,
          "duration": 0.1719695250000015
        },
        {
          "name": "C#4",
          "midi": 61,
          "time": 32.18178599999999,
          "velocity": 0.6299212598425197,
          "duration": 0.1719695250000015
        },
        {
          "name": "C#4",
          "midi": 61,
          "time": 32.36360399999999,
          "velocity": 0.6299212598425197,
          "duration": 0.1719695250000015
        },
        {
          "name": "C#4",
          "midi": 61,
          "time": 32.54542199999999,
          "velocity": 0.6299212598425197,
          "duration": 0.1719695250000015
        },
        {
          "name": "C#4",
          "midi": 61,
          "time": 32.72723999999999,
          "velocity": 0.6299212598425197,
          "duration": 0.1719695250000015
        },
        {
          "name": "C#4",
          "midi": 61,
          "time": 32.90905799999999,
          "velocity": 0.6299212598425197,
          "duration": 0.1719695250000015
        },
        {
          "name": "D4",
          "midi": 62,
          "time": 33.09087599999999,
          "velocity": 0.6299212598425197,
          "duration": 0.1719695250000015
        },
        {
          "name": "C#4",
          "midi": 61,
          "time": 33.27269399999999,
          "velocity": 0.6299212598425197,
          "duration": 0.1719695250000015
        },
        {
          "name": "C#4",
          "midi": 61,
          "time": 33.45451199999999,
          "velocity": 0.6299212598425197,
          "duration": 0.1719695250000015
        },
        {
          "name": "B3",
          "midi": 59,
          "time": 33.63632999999999,
          "velocity": 0.6299212598425197,
          "duration": 0.1719695250000015
        },
        {
          "name": "B3",
          "midi": 59,
          "time": 33.81814799999999,
          "velocity": 0.6299212598425197,
          "duration": 0.1719695250000015
        },
        {
          "name": "B3",
          "midi": 59,
          "time": 33.999965999999986,
          "velocity": 0.6299212598425197,
          "duration": 0.3446966249999974
        },
        {
          "name": "A3",
          "midi": 57,
          "time": 34.363601999999986,
          "velocity": 0.6299212598425197,
          "duration": 0.5174237250000004
        },
        {
          "name": "A3",
          "midi": 57,
          "time": 34.909055999999985,
          "velocity": 0.6299212598425197,
          "duration": 0.6901508250000035
        },
        {
          "name": "C#4",
          "midi": 61,
          "time": 35.63632799999999,
          "velocity": 0.6299212598425197,
          "duration": 0.6901508250000035
        },
        {
          "name": "E4",
          "midi": 64,
          "time": 36.3636,
          "velocity": 0.6299212598425197,
          "duration": 0.6901508250000035
        },
        {
          "name": "C#4",
          "midi": 61,
          "time": 37.090872000000005,
          "velocity": 0.6299212598425197,
          "duration": 0.6901508250000035
        },
        {
          "name": "B3",
          "midi": 59,
          "time": 37.81814400000001,
          "velocity": 0.6299212598425197,
          "duration": 0.6901508250000035
        },
        {
          "name": "C#4",
          "midi": 61,
          "time": 38.54541600000002,
          "velocity": 0.6299212598425197,
          "duration": 0.6901508250000035
        },
        {
          "name": "B3",
          "midi": 59,
          "time": 39.272688000000024,
          "velocity": 0.6299212598425197,
          "duration": 0.6901508250000035
        },
        {
          "name": "A3",
          "midi": 57,
          "time": 39.99996000000003,
          "velocity": 0.6299212598425197,
          "duration": 0.6901508250000035
        },
        {
          "name": "A3",
          "midi": 57,
          "time": 40.727232000000036,
          "velocity": 0.6299212598425197,
          "duration": 1.3810592250000013
        },
        {
          "name": "E4",
          "midi": 64,
          "time": 43.27268400000004,
          "velocity": 0.6299212598425197,
          "duration": 0.3446966249999974
        },
        {
          "name": "A4",
          "midi": 69,
          "time": 43.63632000000004,
          "velocity": 0.6299212598425197,
          "duration": 0.3446966249999974
        },
        {
          "name": "G#4",
          "midi": 68,
          "time": 43.99995600000004,
          "velocity": 0.6299212598425197,
          "duration": 0.3446966249999974
        },
        {
          "name": "A4",
          "midi": 69,
          "time": 44.36359200000004,
          "velocity": 0.6299212598425197,
          "duration": 0.3446966249999974
        },
        {
          "name": "E4",
          "midi": 64,
          "time": 44.72722800000004,
          "velocity": 0.6299212598425197,
          "duration": 0.6901508250000035
        },
        {
          "name": "D4",
          "midi": 62,
          "time": 45.454500000000046,
          "velocity": 0.6299212598425197,
          "duration": 0.3446966249999974
        },
        {
          "name": "C#4",
          "midi": 61,
          "time": 45.818136000000045,
          "velocity": 0.6299212598425197,
          "duration": 0.3446966249999974
        },
        {
          "name": "D4",
          "midi": 62,
          "time": 46.181772000000045,
          "velocity": 0.6299212598425197,
          "duration": 0.3446966249999974
        },
        {
          "name": "E4",
          "midi": 64,
          "time": 46.545408000000045,
          "velocity": 0.6299212598425197,
          "duration": 0.3446966249999974
        },
        {
          "name": "A3",
          "midi": 57,
          "time": 46.909044000000044,
          "velocity": 0.6299212598425197,
          "duration": 0.3446966249999974
        },
        {
          "name": "A3",
          "midi": 57,
          "time": 47.272680000000044,
          "velocity": 0.6299212598425197,
          "duration": 0.3446966249999974
        },
        {
          "name": "D4",
          "midi": 62,
          "time": 47.63631600000004,
          "velocity": 0.6299212598425197,
          "duration": 0.6901508250000035
        },
        {
          "name": "C#4",
          "midi": 61,
          "time": 48.36358800000005,
          "velocity": 0.6299212598425197,
          "duration": 0.3446966249999974
        },
        {
          "name": "A3",
          "midi": 57,
          "time": 48.72722400000005,
          "velocity": 0.6299212598425197,
          "duration": 0.6901508250000035
        },
        {
          "name": "F#4",
          "midi": 66,
          "time": 49.454496000000056,
          "velocity": 0.6299212598425197,
          "duration": 1.3810592250000013
        },
        {
          "name": "G#4",
          "midi": 68,
          "time": 50.909040000000054,
          "velocity": 0.6299212598425197,
          "duration": 0.6901508250000035
        },
        {
          "name": "E4",
          "midi": 64,
          "time": 51.63631200000006,
          "velocity": 0.6299212598425197,
          "duration": 0.6901508250000035
        },
        {
          "name": "A4",
          "midi": 69,
          "time": 52.36358400000007,
          "velocity": 0.6299212598425197,
          "duration": 1.0356050250000024
        },
        {
          "name": "A4",
          "midi": 69,
          "time": 53.454492000000066,
          "velocity": 0.6299212598425197,
          "duration": 0.1719695250000015
        },
        {
          "name": "B4",
          "midi": 71,
          "time": 53.636310000000066,
          "velocity": 0.6299212598425197,
          "duration": 0.1719695250000015
        },
        {
          "name": "C#5",
          "midi": 73,
          "time": 53.818128000000065,
          "velocity": 0.6299212598425197,
          "duration": 0.3446966249999974
        },
        {
          "name": "B4",
          "midi": 71,
          "time": 54.181764000000065,
          "velocity": 0.6299212598425197,
          "duration": 0.1719695250000015
        },
        {
          "name": "D5",
          "midi": 74,
          "time": 54.363582000000065,
          "velocity": 0.6299212598425197,
          "duration": 0.3446966249999974
        },
        {
          "name": "C#5",
          "midi": 73,
          "time": 54.727218000000065,
          "velocity": 0.6299212598425197,
          "duration": 0.3446966249999974
        },
        {
          "name": "A4",
          "midi": 69,
          "time": 55.090854000000064,
          "velocity": 0.6299212598425197,
          "duration": 1.2083321249999983
        },
        {
          "name": "E4",
          "midi": 64,
          "time": 56.36358000000006,
          "velocity": 0.6299212598425197,
          "duration": 0.3446966249999974
        },
        {
          "name": "D5",
          "midi": 74,
          "time": 56.72721600000006,
          "velocity": 0.6299212598425197,
          "duration": 0.3446966249999974
        },
        {
          "name": "C#5",
          "midi": 73,
          "time": 57.09085200000006,
          "velocity": 0.6299212598425197,
          "duration": 0.1719695250000015
        },
        {
          "name": "B4",
          "midi": 71,
          "time": 57.27267000000006,
          "velocity": 0.6299212598425197,
          "duration": 0.3446966249999974
        },
        {
          "name": "A4",
          "midi": 69,
          "time": 57.63630600000006,
          "velocity": 0.6299212598425197,
          "duration": 0.3446966249999974
        },
        {
          "name": "B4",
          "midi": 71,
          "time": 57.99994200000006,
          "velocity": 0.6299212598425197,
          "duration": 1.2083321249999983
        },
        {
          "name": "E4",
          "midi": 64,
          "time": 59.27266800000006,
          "velocity": 0.6299212598425197,
          "duration": 0.3446966249999974
        },
        {
          "name": "C#5",
          "midi": 73,
          "time": 59.63630400000006,
          "velocity": 0.6299212598425197,
          "duration": 0.3446966249999974
        },
        {
          "name": "B4",
          "midi": 71,
          "time": 59.99994000000006,
          "velocity": 0.6299212598425197,
          "duration": 0.1719695250000015
        },
        {
          "name": "A4",
          "midi": 69,
          "time": 60.18175800000006,
          "velocity": 0.6299212598425197,
          "duration": 0.3446966249999974
        },
        {
          "name": "G#4",
          "midi": 68,
          "time": 60.54539400000006,
          "velocity": 0.6299212598425197,
          "duration": 0.3446966249999974
        },
        {
          "name": "A4",
          "midi": 69,
          "time": 60.90903000000006,
          "velocity": 0.6299212598425197,
          "duration": 2.2446947250000022
        },
        {
          "name": "A4",
          "midi": 69,
          "time": 63.27266400000006,
          "velocity": 0.6299212598425197,
          "duration": 0.3446966249999974
        },
        {
          "name": "B4",
          "midi": 71,
          "time": 63.63630000000006,
          "velocity": 0.6299212598425197,
          "duration": 0.3446966249999974
        },
        {
          "name": "C#5",
          "midi": 73,
          "time": 63.99993600000006,
          "velocity": 0.6299212598425197,
          "duration": 0.5174237250000004
        },
        {
          "name": "B4",
          "midi": 71,
          "time": 64.54539000000007,
          "velocity": 0.6299212598425197,
          "duration": 0.1719695249999944
        },
        {
          "name": "B4",
          "midi": 71,
          "time": 64.72720800000006,
          "velocity": 0.6299212598425197,
          "duration": 0.5174237250000004
        },
        {
          "name": "B4",
          "midi": 71,
          "time": 65.27266200000007,
          "velocity": 0.6299212598425197,
          "duration": 0.1719695249999944
        },
        {
          "name": "D5",
          "midi": 74,
          "time": 65.45448000000006,
          "velocity": 0.6299212598425197,
          "duration": 0.5174237250000004
        },
        {
          "name": "D5",
          "midi": 74,
          "time": 65.99993400000007,
          "velocity": 0.6299212598425197,
          "duration": 0.1719695249999944
        },
        {
          "name": "C#5",
          "midi": 73,
          "time": 66.18175200000006,
          "velocity": 0.6299212598425197,
          "duration": 0.3446966249999974
        },
        {
          "name": "B4",
          "midi": 71,
          "time": 66.54538800000006,
          "velocity": 0.6299212598425197,
          "duration": 0.1719695249999944
        },
        {
          "name": "A4",
          "midi": 69,
          "time": 66.72720600000005,
          "velocity": 0.6299212598425197,
          "duration": 1.2083321249999983
        },
        {
          "name": "E4",
          "midi": 64,
          "time": 67.99993200000004,
          "velocity": 0.6299212598425197,
          "duration": 0.3446966249999974
        },
        {
          "name": "D5",
          "midi": 74,
          "time": 68.36356800000004,
          "velocity": 0.6299212598425197,
          "duration": 0.3446966249999974
        },
        {
          "name": "C#5",
          "midi": 73,
          "time": 68.72720400000004,
          "velocity": 0.6299212598425197,
          "duration": 0.1719695249999944
        },
        {
          "name": "B4",
          "midi": 71,
          "time": 68.90902200000004,
          "velocity": 0.6299212598425197,
          "duration": 0.3446966249999974
        },
        {
          "name": "A4",
          "midi": 69,
          "time": 69.27265800000004,
          "velocity": 0.6299212598425197,
          "duration": 0.3446966249999974
        },
        {
          "name": "B4",
          "midi": 71,
          "time": 69.63629400000003,
          "velocity": 0.6299212598425197,
          "duration": 1.2083321249999983
        },
        {
          "name": "E4",
          "midi": 64,
          "time": 70.90902000000003,
          "velocity": 0.6299212598425197,
          "duration": 0.1719695249999944
        },
        {
          "name": "E4",
          "midi": 64,
          "time": 71.09083800000002,
          "velocity": 0.6299212598425197,
          "duration": 0.1719695249999944
        },
        {
          "name": "C#5",
          "midi": 73,
          "time": 71.27265600000001,
          "velocity": 0.6299212598425197,
          "duration": 0.3446966249999974
        },
        {
          "name": "B4",
          "midi": 71,
          "time": 71.63629200000001,
          "velocity": 0.6299212598425197,
          "duration": 0.1719695249999944
        },
        {
          "name": "A4",
          "midi": 69,
          "time": 71.81811,
          "velocity": 0.6299212598425197,
          "duration": 0.3446966249999974
        },
        {
          "name": "G#4",
          "midi": 68,
          "time": 72.181746,
          "velocity": 0.6299212598425197,
          "duration": 0.3446966249999974
        },
        {
          "name": "F#4",
          "midi": 66,
          "time": 72.545382,
          "velocity": 0.6299212598425197,
          "duration": 1.2083321249999983
        },
        {
          "name": "C#4",
          "midi": 61,
          "time": 73.818108,
          "velocity": 0.6299212598425197,
          "duration": 0.3446966249999974
        },
        {
          "name": "G#4",
          "midi": 68,
          "time": 74.181744,
          "velocity": 0.6299212598425197,
          "duration": 1.0356050249999953
        },
        {
          "name": "A4",
          "midi": 69,
          "time": 75.272652,
          "velocity": 0.6299212598425197,
          "duration": 0.1719695249999944
        },
        {
          "name": "A4",
          "midi": 69,
          "time": 75.45446999999999,
          "velocity": 0.6299212598425197,
          "duration": 1.2083321249999983
        },
        {
          "name": "E4",
          "midi": 64,
          "time": 76.72719599999998,
          "velocity": 0.6299212598425197,
          "duration": 0.3446966249999974
        },
        {
          "name": "A4",
          "midi": 69,
          "time": 77.09083199999998,
          "velocity": 0.6299212598425197,
          "duration": 1.0356050249999953
        },
        {
          "name": "B4",
          "midi": 71,
          "time": 78.18173999999998,
          "velocity": 0.6299212598425197,
          "duration": 0.1719695249999944
        },
        {
          "name": "C#5",
          "midi": 73,
          "time": 78.36355799999997,
          "velocity": 0.6299212598425197,
          "duration": 3.971965725000004
        },
        {
          "name": "E4",
          "midi": 64,
          "time": 82.54537199999997,
          "velocity": 0.6299212598425197,
          "duration": 0.3446966249999974
        },
        {
          "name": "A4",
          "midi": 69,
          "time": 82.90900799999997,
          "velocity": 0.6299212598425197,
          "duration": 0.3446966249999974
        },
        {
          "name": "G#4",
          "midi": 68,
          "time": 83.27264399999997,
          "velocity": 0.6299212598425197,
          "duration": 0.1719695249999944
        },
        {
          "name": "A4",
          "midi": 69,
          "time": 83.45446199999996,
          "velocity": 0.6299212598425197,
          "duration": 0.3446966249999974
        },
        {
          "name": "B4",
          "midi": 71,
          "time": 83.81809799999996,
          "velocity": 0.6299212598425197,
          "duration": 0.3446966249999974
        },
        {
          "name": "A4",
          "midi": 69,
          "time": 84.18173399999996,
          "velocity": 0.6299212598425197,
          "duration": 1.5537863250000044
        }
      ],
      "controlChanges": {
        "7": [
          {
            "number": 7,
            "time": 0,
            "value": 0.7874015748031497
          }
        ],
        "10": [
          {
            "number": 10,
            "time": 0,
            "value": 0.5039370078740157
          }
        ],
        "91": [
          {
            "number": 91,
            "time": 0,
            "value": 0
          }
        ],
        "93": [
          {
            "number": 93,
            "time": 0,
            "value": 0
          }
        ],
        "121": [
          {
            "number": 121,
            "time": 0,
            "value": 0
          }
        ]
      },
      "id": 0,
      "instrumentNumber": 0,
      "instrument": "acoustic grand piano",
      "instrumentFamily": "piano",
      "channelNumber": 0,
      "isPercussion": false
    }
  ]
}