<svg style="display:none" width="580" height="400" 
    xmlns="http://www.w3.org/2000/svg">
    <defs>
        <symbol id="icon-information" viewBox="0 0 24 24" fill="#7698b3">
            <path d="M13,9H11V7H13M13,17H11V11H13M12,2A10,10 0 0,0 2,12A10,10 0 0,0 12,22A10,10 0 0,0 22,12A10,10 0 0,0 12,2Z" />
        </symbol>
        <symbol id="icon-sort" viewBox="0 0 24 24">
            <path d="M10,13V11H18V13H10M10,19V17H14V19H10M10,7V5H22V7H10M6,17H8.5L5,20.5L1.5,17H4V7H1.5L5,3.5L8.5,7H6V17Z" />
        </symbol>
        <symbol id="icon-play" viewBox="0 0 24 24">
            <path d="M8,5.14V19.14L19,12.14L8,5.14Z" />
        </symbol>
    </defs>
</svg>
